<svg width="150" height="150" viewBox="0 0 150 150" fill="none" xmlns="http://www.w3.org/2000/svg">
<g clip-path="url(#clip0_3535_74790)">
<path d="M142 0H8C3.58172 0 0 3.58172 0 8V142C0 146.418 3.58172 150 8 150H142C146.418 150 150 146.418 150 142V8C150 3.58172 146.418 0 142 0Z" fill="#FAFAFA"/>
<path d="M92.0904 54.8585V81.9271C92.0904 83.181 91.0644 84.2068 89.8108 84.2068H68.333C67.0791 84.2068 66.053 83.181 66.053 81.9271V50.28C66.053 49.026 67.0791 48 68.333 48H85.2319L92.0904 54.8585" fill="#FFCD6F"/>
<path d="M92.0899 54.8589L87.2545 54.5836C86.3123 54.53 85.56 53.778 85.5068 52.8359L85.2314 48.0004L92.0899 54.8589Z" fill="#FFE1A9"/>
<path d="M89.0553 58.3024V85.3709C89.0553 86.6248 88.0293 87.6509 86.7756 87.6509H65.2978C64.0439 87.6509 63.0181 86.6248 63.0181 85.3709V53.7236C63.0181 52.4699 64.0439 51.4439 65.2978 51.4439H82.1967L89.0553 58.3024Z" fill="#5390FE"/>
<path d="M89.0553 58.3024L84.2197 58.027C83.2774 57.9736 82.5256 57.2214 82.4718 56.2791L82.1968 51.4439L89.0553 58.3024" fill="#BAC5DA"/>
<path d="M85.9295 61.5099V88.5784C85.9295 89.8323 84.9038 90.8584 83.6499 90.8584H62.1724C60.9185 90.8584 59.8926 89.8323 59.8926 88.5784V56.9315C59.8926 55.6777 60.9185 54.6516 62.1724 54.6516H79.0715L85.9295 61.5099" fill="#FFCD6F"/>
<path d="M85.9301 61.5099L81.0947 61.2348C80.1521 61.1814 79.4003 60.4292 79.3469 59.487L79.0718 54.6516L85.9301 61.5099" fill="#FFE1A9"/>
<path d="M82.853 64.8178V91.7885C82.853 93.038 81.8308 94.0602 80.5812 94.0602H59.1813C57.9319 94.0602 56.9097 93.038 56.9097 91.7885V60.2557C56.9097 59.0062 57.9319 57.9839 59.1813 57.9839H76.0195L82.853 64.8178" fill="#5390FE"/>
<path d="M82.853 64.8177L78.0352 64.5434C77.096 64.4902 76.3467 63.7409 76.2935 62.8017L76.0195 57.9839L82.853 64.8177" fill="#BAC5DA"/>
<path d="M80.0476 73.1578H59.7147C59.6008 73.1578 59.5085 73.0655 59.5085 72.9515C59.5085 72.8379 59.6008 72.7456 59.7147 72.7456H80.0476C80.1613 72.7456 80.2536 72.8379 80.2536 72.9515C80.2536 73.0655 80.1613 73.1578 80.0476 73.1578" fill="#E9F3E8"/>
<path d="M80.0476 70.657H59.7147C59.6008 70.657 59.5085 70.5647 59.5085 70.451C59.5085 70.3374 59.6008 70.2448 59.7147 70.2448H80.0476C80.1613 70.2448 80.2536 70.3374 80.2536 70.451C80.2536 70.5647 80.1613 70.657 80.0476 70.657" fill="#E9F3E8"/>
<path d="M80.0476 68.1561H59.7147C59.6008 68.1561 59.5085 68.0642 59.5085 67.95C59.5085 67.8362 59.6008 67.7439 59.7147 67.7439H80.0476C80.1612 67.7439 80.2537 67.8362 80.2537 67.95C80.2537 68.0642 80.1612 68.1561 80.0476 68.1561Z" fill="#E9F3E8"/>
<path d="M97 73.339V100.31C97 101.197 96.2806 101.917 95.393 101.917H53.6067C52.7193 101.917 52 101.197 52 100.31V73.339C52 72.4518 52.7194 71.7324 53.607 71.7324H61.3107C62.1276 71.7324 62.7899 72.3944 62.7899 73.2116V75.9681C62.7899 76.6032 63.305 77.1184 63.9403 77.1184H85.0595C85.695 77.1184 86.2102 76.6032 86.2102 75.9681V73.2116C86.2102 72.3944 86.8722 71.7324 87.6894 71.7324H95.393C96.2806 71.7324 97 72.4514 97 73.339" fill="#B3B3B3"/>
<path d="M79.6256 87.6402H76.9499C76.7583 87.6402 76.603 87.7866 76.603 87.9675V97.5378C76.603 97.7185 76.4476 97.8649 76.256 97.8649H71.5284C71.3365 97.8649 71.1812 97.7185 71.1812 97.5378V87.9675C71.1812 87.7866 71.0258 87.6402 70.8344 87.6402H68.1588C67.8418 87.6402 67.6907 87.2728 67.9248 87.0714L73.6583 82.1397C73.7907 82.0255 73.9934 82.0255 74.1258 82.1397L79.8593 87.0714C80.0934 87.2728 79.9423 87.6402 79.6256 87.6402" fill="#E3E3E3"/>
</g>
<defs>
<clipPath id="clip0_3535_74790">
<rect width="150" height="150" fill="white"/>
</clipPath>
</defs>
</svg>
