<svg width="1197" height="437" viewBox="0 0 1197 437" fill="none" xmlns="http://www.w3.org/2000/svg">
<rect width="1197" height="436.715" transform="translate(0 0.211914)" fill="#1A6176"/>
<path fill-rule="evenodd" clip-rule="evenodd" d="M73.2178 275.334C82.7168 281.324 92.2153 287.314 107.033 293.585C121.852 299.855 141.99 306.407 162.507 310.431C183.025 314.455 203.922 315.953 230.519 314.549C257.116 313.145 289.411 308.84 312.208 306.5C335.006 304.16 348.304 303.786 359.988 304.535C371.672 305.284 381.74 307.155 390.194 310.525C398.648 313.894 405.487 318.761 412.326 323.628C400.168 324.189 388.009 324.751 368.347 330.179C348.684 335.607 321.518 345.902 302.045 352.079C282.573 358.256 270.794 360.315 259.775 361.906C248.756 363.498 238.498 364.62 223.014 364.34C207.532 364.059 186.824 362.374 166.021 355.448C145.219 348.523 124.322 336.356 109.788 324.657C95.2553 312.958 87.0859 301.727 82.0517 293.585C77.0175 285.442 75.1174 280.388 73.2178 275.334Z" fill="url(#paint0_linear_345_11855)"/>
<path fill-rule="evenodd" clip-rule="evenodd" d="M412.165 323.635C400.06 324.194 387.922 324.774 368.347 330.178C348.684 335.607 321.518 345.902 302.045 352.079C282.573 358.256 270.794 360.315 259.775 361.906C248.756 363.497 238.498 364.62 223.014 364.34C207.532 364.059 186.824 362.374 166.021 355.448C145.219 348.523 124.322 336.355 109.789 324.657C95.2554 312.958 87.086 301.727 82.0518 293.585C77.4604 286.159 75.4765 281.302 73.7217 276.671C77.4165 280.57 80.0707 284.02 83.667 287.875C90.126 294.801 99.625 303.037 112.163 310.805C124.702 318.573 140.28 325.874 155.003 331.395C169.726 336.917 183.595 340.661 196.513 343.188C209.431 345.715 221.4 347.025 234.983 346.932C248.567 346.838 263.764 345.34 278.773 342.626C293.781 339.912 308.599 335.981 323.987 332.051C339.375 328.12 355.333 324.188 367.872 322.411C380.41 320.632 389.529 321.007 396.749 321.568C403.967 322.13 409.287 322.878 412.137 323.627L412.165 323.635Z" fill="url(#paint1_linear_345_11855)"/>
<path fill-rule="evenodd" clip-rule="evenodd" d="M391.238 330.366C384.019 331.114 376.8 332.986 369.296 335.42C361.792 337.853 354.003 340.848 345.739 344.217C337.475 347.586 328.736 351.33 320.567 354.606C312.398 357.882 304.799 360.689 295.87 363.123C286.941 365.556 276.682 367.615 266.804 368.926C256.925 370.236 247.426 370.797 239.352 370.984C231.278 371.171 224.629 370.984 217.979 370.797C223.679 372.856 229.378 374.915 234.982 376.506C240.587 378.098 246.096 379.221 252.46 380.156C258.825 381.092 266.043 381.841 274.592 381.467C283.141 381.092 293.021 379.595 301.379 377.535C309.738 375.477 316.577 372.856 323.321 370.048C330.066 367.241 336.715 364.246 343.649 360.876C350.583 357.507 357.803 353.763 365.212 350.02C372.621 346.276 380.22 342.532 386.869 339.538C393.518 336.543 399.217 334.296 403.397 332.893C407.577 331.488 410.236 330.927 412.896 330.366C405.677 329.991 398.458 329.617 391.238 330.366Z" fill="url(#paint2_linear_345_11855)"/>
<path fill-rule="evenodd" clip-rule="evenodd" d="M-65.5605 259.28C-48.5578 264.257 -31.5545 269.234 -10.1348 279.022C11.2849 288.811 37.1221 303.412 63.2437 317.918C89.3659 332.425 115.772 346.838 138.759 357.507C161.746 368.177 181.314 375.102 203.922 380.812C226.529 386.521 252.176 391.013 272.313 391.949C292.451 392.885 307.079 390.264 321.707 387.643C306.129 396.441 290.551 405.239 272.883 411.041C255.216 416.845 235.458 419.652 215.605 420.682C195.753 421.711 175.805 420.962 149.018 414.785C122.232 408.608 88.6056 397.003 51.7026 381.669C14.7996 366.335 -25.3805 347.273 -65.5605 328.21C-65.5605 305.233 -65.5605 282.257 -65.5605 259.28Z" fill="url(#paint3_linear_345_11855)"/>
<path fill-rule="evenodd" clip-rule="evenodd" d="M-65.5605 344.916C-51.0273 348.864 -36.4941 352.811 -23.433 357.687C-10.3725 362.561 1.21648 368.364 12.8049 373.792C24.3938 379.221 35.9822 384.275 45.2909 388.206C54.5996 392.136 61.6291 394.944 69.9877 397.564C78.3469 400.185 88.0357 402.618 97.7245 405.052C90.1256 404.865 82.5262 404.678 73.0277 403.554C63.5287 402.431 52.1301 400.372 39.5916 396.722C27.0531 393.072 13.3748 387.831 -1.06324 382.403C-15.5019 376.974 -30.6996 371.359 -41.5756 367.701C-52.4522 364.042 -59.0063 362.341 -65.5605 360.64C-65.5605 355.399 -65.5605 350.158 -65.5605 344.916Z" fill="url(#paint4_linear_345_11855)"/>
<path fill-rule="evenodd" clip-rule="evenodd" d="M1118.74 159.245C1113.42 154.274 1108.1 149.302 1099.79 144.096C1091.49 138.892 1080.21 133.453 1068.71 130.113C1057.21 126.772 1045.51 125.529 1030.6 126.695C1015.7 127.86 997.605 131.434 984.831 133.376C972.058 135.318 964.606 135.629 958.06 135.007C951.514 134.386 945.872 132.832 941.135 130.035C936.398 127.239 932.566 123.199 928.734 119.159C935.547 118.693 942.36 118.227 953.377 113.721C964.394 109.215 979.615 100.67 990.526 95.5423C1001.44 90.4149 1008.04 88.7056 1014.21 87.3851C1020.38 86.0641 1026.13 85.1324 1034.81 85.365C1043.48 85.598 1055.09 86.9968 1066.74 92.7455C1078.4 98.4942 1090.11 108.594 1098.25 118.304C1106.39 128.015 1110.97 137.338 1113.79 144.096C1116.61 150.855 1117.68 155.05 1118.74 159.245Z" fill="url(#paint5_linear_345_11855)"/>
<path fill-rule="evenodd" clip-rule="evenodd" d="M928.825 119.153C935.608 118.689 942.408 118.207 953.377 113.721C964.394 109.215 979.615 100.67 990.526 95.5426C1001.44 90.4153 1008.04 88.706 1014.21 87.3855C1020.38 86.0645 1026.13 85.1327 1034.81 85.3653C1043.48 85.5984 1055.09 86.9972 1066.74 92.7459C1078.4 98.4946 1090.11 108.594 1098.25 118.305C1106.39 128.016 1110.97 137.338 1113.79 144.097C1116.36 150.261 1117.47 154.292 1118.46 158.136C1116.39 154.9 1114.9 152.036 1112.89 148.836C1109.27 143.087 1103.94 136.25 1096.92 129.803C1089.89 123.354 1081.16 117.295 1072.91 112.711C1064.67 108.128 1056.89 105.02 1049.66 102.923C1042.42 100.825 1035.71 99.7377 1028.1 99.8151C1020.49 99.8929 1011.97 101.136 1003.57 103.389C995.156 105.642 986.854 108.904 978.232 112.167C969.61 115.43 960.668 118.694 953.643 120.169C946.617 121.645 941.508 121.335 937.463 120.868C933.418 120.402 930.437 119.781 928.841 119.159L928.825 119.153Z" fill="url(#paint6_linear_345_11855)"/>
<path fill-rule="evenodd" clip-rule="evenodd" d="M940.55 113.566C944.595 112.944 948.64 111.391 952.845 109.371C957.049 107.351 961.413 104.865 966.044 102.068C970.674 99.2716 975.57 96.1639 980.148 93.445C984.725 90.7257 988.983 88.3951 993.986 86.3754C998.989 84.3556 1004.74 82.6464 1010.27 81.5585C1015.81 80.471 1021.13 80.0049 1025.65 79.8496C1030.18 79.6944 1033.9 79.8496 1037.63 80.0049C1034.44 78.2961 1031.24 76.5868 1028.1 75.2663C1024.96 73.9453 1021.87 73.013 1018.31 72.2365C1014.74 71.4594 1010.7 70.8381 1005.91 71.1485C1001.12 71.4594 995.582 72.7026 990.899 74.4119C986.215 76.1207 982.383 78.2961 978.604 80.6267C974.825 82.9573 971.1 85.4431 967.215 88.2398C963.329 91.0366 959.284 94.1442 955.133 97.2514C950.982 100.359 946.724 103.467 942.998 105.953C939.273 108.438 936.079 110.303 933.738 111.468C931.396 112.634 929.906 113.1 928.415 113.566C932.46 113.877 936.505 114.187 940.55 113.566Z" fill="url(#paint7_linear_345_11855)"/>
<path fill-rule="evenodd" clip-rule="evenodd" d="M1196.5 172.572C1186.97 168.44 1177.44 164.309 1165.44 156.184C1153.44 148.059 1138.96 135.939 1124.33 123.898C1109.69 111.857 1094.9 99.8928 1082.02 91.0365C1069.14 82.1801 1058.17 76.4314 1045.5 71.6924C1032.84 66.9533 1018.47 63.2243 1007.18 62.4478C995.901 61.6707 987.705 63.8462 979.509 66.0216C988.237 58.7188 996.966 51.416 1006.87 46.5996C1016.76 41.7827 1027.83 39.4521 1038.96 38.5977C1050.08 37.7433 1061.26 38.3646 1076.27 43.492C1091.28 48.6193 1110.12 58.2527 1130.79 70.9806C1151.47 83.7086 1173.98 99.532 1196.5 115.355C1196.5 134.427 1196.5 153.499 1196.5 172.572Z" fill="url(#paint8_linear_345_11855)"/>
<path fill-rule="evenodd" clip-rule="evenodd" d="M1196.5 101.488C1188.35 98.2108 1180.21 94.9345 1172.89 90.8876C1165.58 86.8412 1159.08 82.0247 1152.59 77.5187C1146.1 73.0127 1139.6 68.8176 1134.39 65.5548C1129.17 62.2919 1125.23 59.9618 1120.55 57.7864C1115.87 55.611 1110.44 53.5913 1105.01 51.5711C1109.27 51.7268 1113.52 51.882 1118.85 52.8142C1124.17 53.7465 1130.56 55.4557 1137.58 58.4855C1144.61 61.5153 1152.27 65.8657 1160.36 70.3717C1168.45 74.8777 1176.97 79.5384 1183.06 82.5752C1189.15 85.612 1192.83 87.0239 1196.5 88.4362C1196.5 92.7866 1196.5 97.1369 1196.5 101.488Z" fill="url(#paint9_linear_345_11855)"/>
<defs>
<linearGradient id="paint0_linear_345_11855" x1="73.2178" y1="275.334" x2="411.756" y2="275.333" gradientUnits="userSpaceOnUse">
<stop stop-color="#EE202A"/>
<stop offset="1" stop-color="#F8EB21"/>
</linearGradient>
<linearGradient id="paint1_linear_345_11855" x1="69.7983" y1="369.674" x2="412.896" y2="369.674" gradientUnits="userSpaceOnUse">
<stop stop-color="#F8EB20"/>
<stop offset="1" stop-color="#F04E27"/>
</linearGradient>
<linearGradient id="paint2_linear_345_11855" x1="412.896" y1="330.366" x2="218.228" y2="371.96" gradientUnits="userSpaceOnUse">
<stop stop-color="#0E6137"/>
<stop offset="1" stop-color="#37B549"/>
</linearGradient>
<linearGradient id="paint3_linear_345_11855" x1="-65.5605" y1="286.936" x2="291.883" y2="423.137" gradientUnits="userSpaceOnUse">
<stop stop-color="#1C98B0"/>
<stop offset="1" stop-color="#125F73"/>
</linearGradient>
<linearGradient id="paint4_linear_345_11855" x1="98.0083" y1="404.165" x2="-65.3997" y2="351.853" gradientUnits="userSpaceOnUse">
<stop stop-color="#F5EC21"/>
<stop offset="1" stop-color="#F08C2A"/>
</linearGradient>
<linearGradient id="paint5_linear_345_11855" x1="1118.74" y1="159.245" x2="929.054" y2="159.246" gradientUnits="userSpaceOnUse">
<stop stop-color="#EE202A"/>
<stop offset="1" stop-color="#F8EB21"/>
</linearGradient>
<linearGradient id="paint6_linear_345_11855" x1="1120.66" y1="80.9371" x2="928.415" y2="80.9373" gradientUnits="userSpaceOnUse">
<stop stop-color="#F8EB20"/>
<stop offset="1" stop-color="#F04E27"/>
</linearGradient>
<linearGradient id="paint7_linear_345_11855" x1="928.415" y1="113.566" x2="1040.14" y2="97.451" gradientUnits="userSpaceOnUse">
<stop stop-color="#0E6137"/>
<stop offset="1" stop-color="#37B549"/>
</linearGradient>
<linearGradient id="paint8_linear_345_11855" x1="1196.5" y1="149.615" x2="981.373" y2="94.2825" gradientUnits="userSpaceOnUse">
<stop stop-color="#1C98B0"/>
<stop offset="1" stop-color="#125F73"/>
</linearGradient>
<linearGradient id="paint9_linear_345_11855" x1="1104.85" y1="52.3071" x2="1201.29" y2="73.147" gradientUnits="userSpaceOnUse">
<stop stop-color="#F5EC21"/>
<stop offset="1" stop-color="#F08C2A"/>
</linearGradient>
</defs>
</svg>
