<svg width="280" height="280" viewBox="0 0 280 280" fill="none" xmlns="http://www.w3.org/2000/svg">
<path d="M1.46497 278.804C4.61807 274.314 11.5911 136.287 30.5948 119.266C49.5984 102.246 126.788 86.2457 126.788 86.2457L152.159 82.8946C152.159 82.8946 210.332 93.7515 231.996 102.213C253.66 110.674 261.293 126.46 269.969 174.536C275.446 204.885 280.266 245.429 277.699 278.804H1.46497Z" fill="#FAB445"/>
<path d="M14.3418 25.242V68.4219L111.316 48.2116C111.316 48.2116 114.734 43.0349 111.316 37.5635L14.3418 25.242Z" fill="#30404B"/>
<path d="M5.6938 46.8296C5.6938 58.7535 9.5646 68.4209 14.3423 68.4209C19.1155 68.4209 22.9885 58.7535 22.9885 46.8296C22.9885 34.9057 19.1155 25.2411 14.3423 25.2411C9.5646 25.2411 5.6938 34.9057 5.6938 46.8296Z" fill="#F7A388"/>
<path d="M153.879 57.8945C153.879 57.8945 156.991 47.633 165.035 28.1985C168.136 20.7028 166.32 12.0302 158.755 10.7594C154.735 10.0845 151.116 13.0398 147.339 6.28332C143.405 -0.756327 132.111 -1.8781 126.245 4.39653C118.334 12.8596 114.662 2.39938 105.329 8.92227C99.1663 13.2273 94.7009 33.5849 121.631 40.8931C148.562 48.2012 153.879 57.8945 153.879 57.8945" fill="#373C4B"/>
<path d="M117.852 31.0962C117.852 31.0962 113.076 68.3071 124.391 71.8612C124.391 71.8612 125.302 82.1855 124.278 84.1681C124.278 84.1681 122.375 95.7573 132.048 97.2094C147.117 99.4722 151.18 90.9283 154.382 88.3937C154.382 88.3937 151.571 67.5396 154.092 50.7684C154.092 50.7684 158.366 49.7008 158.58 43.2755C158.795 36.8502 152.389 36.1589 151.646 38.057C150.906 39.9568 142.386 37.0972 141.525 27.6714C141.525 27.6714 123.858 39.0301 117.852 31.0962" fill="#FFB39A"/>
<path d="M151.721 34.3187C154.167 47.0272 153.402 66.2335 150.968 72.4731C149.199 77.0035 149.196 78.0356 137.022 80.0046C124.849 81.9753 122.04 82.0839 120.078 75.7457C118.117 69.4076 115.36 61.0003 116.62 58.1555C117.883 55.3123 133.889 56.9028 139.972 60.8696C146.051 64.8382 145.738 64.4206 145.738 64.4206C145.738 64.4206 149.984 57.4001 146.424 33.0168C144.698 21.1994 151.721 34.3187 151.721 34.3187" fill="#373C4B"/>
<path d="M130.67 69.0779C130.651 70.146 127.758 69.4647 126.153 69.4281C124.548 69.3915 122.885 69.9725 122.906 68.9028C122.928 67.8348 124.608 66.8303 126.212 66.8654C127.817 66.902 130.691 68.0083 130.67 69.0779Z" fill="white"/>
<path d="M41.0577 25.2409V68.4219L138.033 48.2108C138.033 48.2108 141.45 43.0336 138.033 37.5628L41.0577 25.2409Z" fill="#30404B"/>
<path d="M32.412 46.8305C32.412 58.7551 36.2827 68.4219 41.0586 68.4219C45.8324 68.4219 49.7051 58.7551 49.7051 46.8305C49.7051 34.9059 45.8324 25.2413 41.0586 25.2413C36.2827 25.2413 32.412 34.9059 32.412 46.8305Z" fill="#455760"/>
<path d="M5.6938 46.8296C5.6938 58.7535 9.5646 68.4209 14.3423 68.4209C19.1155 68.4209 22.9885 58.7535 22.9885 46.8296C22.9885 34.9057 19.1155 25.2411 14.3423 25.2411C9.5646 25.2411 5.6938 34.9057 5.6938 46.8296Z" fill="#455760"/>
<path d="M33.5854 46.8325C33.5854 57.823 36.9323 66.7334 41.0587 66.7334C45.1872 66.7334 48.532 57.823 48.532 46.8325C48.532 35.8419 45.1872 26.9293 41.0587 26.9293C36.9323 26.9293 33.5854 35.8419 33.5854 46.8325Z" fill="#FFB39A"/>
<path d="M6.86694 46.8262C6.86694 57.818 10.2114 66.7295 14.3408 66.7295C18.468 66.7295 21.8147 57.818 21.8147 46.8262C21.8147 35.8367 18.468 26.9253 14.3408 26.9253C10.2114 26.9253 6.86694 35.8367 6.86694 46.8262Z" fill="#FFB39A"/>
<path d="M114.141 90.6482C113.471 88.6962 104.9 60.4739 103.19 53.3295C101.479 46.1872 86.6575 24.3146 81.5266 24.4094C76.3938 24.5062 75.4445 27.7487 75.4445 27.7487C75.4445 27.7487 71.2516 18.5032 66.6957 19.7816C62.1435 21.0621 63.2537 28.7146 63.2537 28.7146C63.2537 28.7146 57.962 29.6925 58.5313 36.4195C59.1024 43.1484 67.647 56.9733 68.1954 60.3569C68.742 63.7425 68.5037 85.1049 77.2959 91.7835C86.0863 98.4628 87.6523 101.426 87.6523 101.426C91.047 99.2801 95.2039 96.9984 100.1 94.9775C105.305 92.832 110.092 91.4971 114.141 90.6482" fill="#FFB39A"/>
<path d="M78.9681 31.9506C83.5736 37.5837 87.5936 43.7601 90.9128 50.342C91.847 52.1946 92.7246 54.0773 93.5456 55.9864C93.6871 56.3147 93.634 56.7052 93.3208 56.9014C93.0519 57.0693 92.606 56.9919 92.4645 56.6618C89.5787 49.9572 85.9958 43.5959 81.7955 37.7346C80.6065 36.0782 79.3662 34.4672 78.0817 32.8957C77.8587 32.6241 77.8304 32.2185 78.0817 31.9506C78.3081 31.7091 78.7452 31.6789 78.9681 31.9506Z" fill="#C36F5A"/>
<path d="M66.4693 32.0347C68.6892 35.7516 70.9072 39.4684 73.127 43.1852C75.1066 46.5 77.1582 49.8029 78.5426 53.4626C79.3115 55.4964 79.8217 57.6268 79.9585 59.8183C79.9825 60.1789 79.6553 60.4863 79.3337 60.4863C78.9751 60.4863 78.7293 60.1789 78.7053 59.8183C78.4687 56.0601 76.9789 52.5699 75.2378 49.3477C73.3155 45.7885 71.153 42.3673 69.0847 38.9047C67.8519 36.8394 66.619 34.776 65.388 32.7107C64.9518 31.9835 66.0368 31.3115 66.4693 32.0347" fill="#C36F5A"/>
<path d="M118.103 94.8664C123.902 104.07 129.615 113.335 135.238 122.663C140.859 131.99 146.393 141.38 151.835 150.829C157.276 160.278 162.629 169.786 167.887 179.351C173.148 188.916 178.316 198.539 183.39 208.217C188.465 217.895 193.447 227.628 198.335 237.415C198.95 238.649 199.565 239.883 200.179 241.118C200.556 241.878 199.474 242.554 199.096 241.793C194.231 231.993 189.273 222.245 184.222 212.554C179.171 202.862 174.026 193.224 168.789 183.645C163.552 174.066 158.225 164.542 152.806 155.079C147.386 145.616 141.878 136.211 136.277 126.867C130.677 117.524 124.988 108.241 119.209 99.0226C118.482 97.8615 117.753 96.7004 117.022 95.5392C116.57 94.8239 117.656 94.1544 118.103 94.8664" fill="#2D323D"/>
<path d="M205.991 138.581C203.413 143.945 201.798 149.758 200.772 155.67C199.733 161.654 199.286 167.733 198.977 173.804C198.641 180.446 198.397 187.094 198.114 193.739C197.826 200.546 197.49 207.352 197.271 214.162C197.056 220.859 197.035 227.61 197.913 234.259C198.023 235.085 198.145 235.909 198.282 236.73C198.422 237.571 197.214 237.933 197.073 237.085C195.963 230.38 195.794 223.559 195.946 216.767C196.098 209.908 196.466 203.052 196.757 196.198C197.045 189.402 197.312 182.605 197.627 175.812C197.911 169.672 198.3 163.527 199.217 157.453C200.125 151.43 201.588 145.486 203.984 139.931C204.278 139.25 204.588 138.574 204.908 137.906C205.277 137.141 206.359 137.816 205.991 138.581" fill="#2D323D"/>
<path d="M115.13 94.3826C107.944 95.8953 100.934 98.4341 94.3909 101.948C92.5551 102.934 90.7569 103.996 88.9963 105.126C88.3057 105.571 87.6083 104.459 88.3006 104.015C94.6388 99.9431 101.49 96.781 108.618 94.6632C110.633 94.0636 112.672 93.5479 114.725 93.1177C115.057 93.0467 115.402 93.1596 115.522 93.5333C115.619 93.8395 115.464 94.3115 115.13 94.3826Z" fill="#2D323D"/>
<path d="M83.9564 115.81C86.8965 125.31 89.8365 134.808 92.7766 144.307C95.7289 153.852 98.6828 163.396 101.637 172.941C104.577 182.439 107.517 191.938 110.457 201.438C113.366 210.838 116.236 220.255 119.209 229.634C122.102 238.764 125.156 247.85 128.785 256.684C129.238 257.783 129.699 258.878 130.167 259.969C130.501 260.746 129.42 261.426 129.086 260.644C125.324 251.9 122.158 242.884 119.216 233.794C116.207 224.487 113.369 215.114 110.476 205.766C107.508 196.175 104.542 186.586 101.572 176.995C98.6184 167.45 95.6662 157.906 92.7122 148.361C89.7582 138.816 86.8042 129.273 83.8502 119.728C83.4829 118.54 83.1156 117.353 82.7483 116.166C82.4942 115.347 83.704 114.996 83.9564 115.81Z" fill="#2D323D"/>
<path d="M60.367 155.673C59.5957 164.117 59.0029 172.577 58.5888 181.048C58.1746 189.497 57.9371 197.955 57.8782 206.416C57.844 211.178 57.8668 215.939 57.9466 220.7C57.9599 221.56 56.706 221.562 56.6927 220.7C56.5521 212.22 56.5882 203.734 56.8048 195.255C57.0214 186.798 57.4146 178.345 57.9827 169.907C58.3038 165.157 58.6819 160.413 59.1131 155.673C59.1454 155.314 59.3772 155.004 59.7401 155.004C60.0536 155.004 60.3993 155.311 60.367 155.673Z" fill="#2D323D"/>
<path d="M134.951 35.454C134.951 35.4524 134.95 35.4524 134.948 35.4508C134.977 35.4153 134.791 35.5316 134.951 35.454ZM134.05 34.9872C134.426 34.5769 135.056 34.606 135.557 34.6011C136.613 34.5914 137.686 34.7788 138.684 35.1471C139.827 35.5687 140.865 36.2084 141.786 37.0403C142.043 37.2745 142.01 37.7446 141.786 37.9853C141.53 38.2583 141.157 38.2195 140.898 37.9853C140.892 37.9788 140.883 37.9724 140.877 37.9659C140.68 38.1048 140.409 38.1452 140.213 37.9934C139.384 37.3553 138.457 36.9321 137.451 36.7431C136.95 36.6494 136.433 36.6332 135.926 36.6704C135.374 36.7108 134.794 36.9224 134.286 36.5816C133.786 36.2439 133.615 35.4621 134.05 34.9872Z" fill="#2D323D"/>
<path d="M127.841 50.7696C127.717 51.5127 127.497 52.2242 127.2 52.909C127.082 53.1814 126.938 53.4522 126.89 53.7151C126.898 53.6757 126.88 53.863 126.887 53.7245C126.923 53.7827 126.927 53.7953 126.901 53.7607C126.874 53.7276 126.883 53.7387 126.926 53.7906C126.933 53.7985 127.069 53.915 126.983 53.8504C127.035 53.8882 127.088 53.9228 127.143 53.9543C127.336 54.0677 127.574 54.1495 127.86 54.2597C128.187 54.3841 128.514 54.5038 128.85 54.6045C129.49 54.7997 130.13 54.9067 130.797 54.8438C131.135 54.8123 131.423 55.1728 131.423 55.5128C131.423 55.9001 131.135 56.1488 130.797 56.1803C129.972 56.259 129.139 56.0953 128.349 55.8419C127.99 55.7269 127.636 55.5916 127.283 55.4546C126.964 55.3302 126.632 55.209 126.35 55.0044C126.046 54.784 125.784 54.4801 125.687 54.0944C125.566 53.6096 125.702 53.153 125.895 52.717C126.227 51.9676 126.496 51.2356 126.632 50.4138C126.692 50.0581 127.099 49.8581 127.404 49.9463C127.756 50.0502 127.902 50.4123 127.841 50.7696" fill="#C36F5A"/>
<path d="M155.496 41.1709C155.324 41.2834 155.153 41.3959 154.982 41.5085C154.905 41.5592 154.813 41.6495 154.726 41.6764C154.584 41.7224 154.81 41.8127 154.787 41.4799C154.759 41.3674 154.731 41.2549 154.703 41.1424C154.692 41.1455 154.685 41.144 154.679 41.1376C154.661 41.1138 154.685 41.1281 154.747 41.1804C154.793 41.2105 154.844 41.2343 154.893 41.2596C155.028 41.3278 155.168 41.3848 155.302 41.4593C155.586 41.6178 155.843 41.8666 155.985 42.1772C156.321 42.9142 155.926 43.5401 155.324 43.903C155.275 43.9331 155.226 43.9617 155.177 43.9934C155.088 44.052 155.18 43.9823 155.134 44.0251C155.097 44.0599 155.061 44.0995 155.027 44.1376C154.905 44.2786 155.05 44.0901 154.997 44.182C154.97 44.2263 154.946 44.2723 154.921 44.3198C154.844 44.4609 154.932 44.239 154.89 44.3991C154.877 44.4498 154.863 44.5021 154.848 44.5544C154.842 44.5766 154.822 44.7208 154.835 44.6019C154.822 44.7097 154.826 44.819 154.829 44.9268C154.835 45.1186 154.814 44.8682 154.836 44.9744C154.847 45.0266 154.857 45.0789 154.872 45.1312C154.877 45.1439 154.948 45.3151 154.897 45.2105C154.921 45.258 154.946 45.3024 154.97 45.3499C154.984 45.3705 155.064 45.4704 155 45.3943C155.042 45.4434 155.085 45.4878 155.131 45.5306C155.385 45.7683 155.36 46.2311 155.131 46.4751C154.88 46.7429 154.499 46.716 154.245 46.4751C153.204 45.4957 153.423 43.5845 154.573 42.8206C154.64 42.7763 154.712 42.7382 154.78 42.6954C154.802 42.6812 154.949 42.6146 154.872 42.6384C154.926 42.5813 154.933 42.5734 154.893 42.6146C154.883 42.6558 154.871 42.697 154.86 42.7382C154.828 42.7858 154.918 42.7826 154.828 42.724C154.582 42.5607 154.239 42.4371 153.979 42.2406C153.527 41.8983 153.377 41.2882 153.759 40.8175C154.041 40.4704 154.501 40.2549 154.863 40.0172C155.551 39.5639 156.182 40.7192 155.496 41.1709" fill="#C36F5A"/>
<path d="M40.6812 28.9837C39.3748 29.5469 38.6231 31.0308 38.0542 32.3176C37.3268 33.9574 36.8026 35.7013 36.4714 37.4798C36.2866 38.4763 36.1708 39.4836 36.1179 40.4996C36.0814 41.1972 35.0574 41.2015 35.0939 40.4996C35.1976 38.5261 35.5267 36.5635 36.0915 34.6788C36.3699 33.7473 36.7071 32.8353 37.0911 31.9471C37.4264 31.1716 37.8002 30.4112 38.2878 29.7288C38.8547 28.9382 39.5373 28.3078 40.409 27.9308C40.665 27.8204 40.9718 28.0522 41.0388 28.3121C41.118 28.6241 40.9372 28.8732 40.6812 28.9837" fill="white"/>
<path d="M14.0952 28.8996C12.0963 30.0925 11.2096 32.4852 10.428 34.6491C10.3295 34.9176 10.0908 35.1043 9.8106 35.0226C9.56977 34.9503 9.36396 34.6351 9.46249 34.3643C10.3404 31.9343 11.3453 29.3151 13.5894 27.9775C14.1521 27.6414 14.6578 28.5635 14.0952 28.8996" fill="white"/>
<path d="M9.67363 37.8424C9.36613 39.2148 9.21895 40.6129 9.22774 42.0227C9.23213 42.7112 8.23058 42.7112 8.22618 42.0227C8.2152 40.5215 8.37994 39.0181 8.70721 37.5567C8.85876 36.8893 9.82518 37.1727 9.67363 37.8424Z" fill="white"/>
<path d="M34.2312 45.9674C36.1732 44.2118 38.7653 43.7925 41.2331 44.0402C43.3055 44.2466 45.3412 44.8463 47.2689 45.6741C47.6948 45.8566 48.1207 46.0456 48.5303 46.2629C48.9766 46.4997 48.5854 47.2102 48.1411 46.9734C48.0617 46.9321 47.9781 46.8908 47.8986 46.8517C47.8049 46.8061 47.7091 46.7605 47.6154 46.717C47.5583 46.6888 47.5013 46.6627 47.4442 46.6366C47.4259 46.6279 47.4096 46.6214 47.3912 46.6127C47.3932 46.6127 47.326 46.5845 47.3056 46.5758C46.5374 46.2347 45.7528 45.9348 44.954 45.6784C43.8964 45.3373 42.796 45.0592 41.6875 44.9071C42.2397 45.4221 42.5861 46.1651 42.5861 46.9951C42.5861 48.5464 41.3716 49.8066 39.8698 49.8066C38.372 49.8066 37.1554 48.5464 37.1554 46.9951C37.1554 46.2064 37.4693 45.4959 37.9726 44.9832C36.8009 45.2309 35.6944 45.7219 34.7774 46.5497C34.6204 46.6931 34.3881 46.717 34.2312 46.5497C34.0947 46.402 34.0723 46.1108 34.2312 45.9674" fill="#2D323D"/>
<path d="M21.2318 45.9639C19.2918 44.2108 16.6986 43.7919 14.2311 44.039C12.1587 44.2461 10.1217 44.8461 8.19495 45.6721C7.76899 45.8533 7.34303 46.0439 6.93253 46.2604C6.48671 46.4981 6.87736 47.2087 7.32317 46.9711C7.40263 46.9311 7.48429 46.8887 7.56595 46.8487C7.66085 46.804 7.75354 46.7593 7.84844 46.7146C7.90582 46.6887 7.9632 46.6604 8.02058 46.6346C8.03824 46.6275 8.05589 46.6204 8.07134 46.611C8.07134 46.611 8.13756 46.5828 8.15742 46.5734C8.92546 46.2322 9.71115 45.9333 10.5101 45.6768C11.5673 45.3356 12.6686 45.0579 13.7765 44.9073C13.2247 45.4203 12.8782 46.1639 12.8782 46.9923C12.8782 48.5453 14.0921 49.8066 15.5928 49.8066C17.0914 49.8066 18.3075 48.5453 18.3075 46.9923C18.3075 46.2039 17.9963 45.4933 17.4909 44.9826C18.6628 45.2297 19.7707 45.7192 20.6844 46.5475C20.8433 46.691 21.0773 46.7146 21.2318 46.5475C21.3708 46.3992 21.3929 46.1098 21.2318 45.9639" fill="#2D323D"/>
</svg>
